# This file uses centimeters as units for non-parametric coordinates.

mtllib Door.mtl
g default
v -3.409183 0.842539 0.253503
v -1.409183 0.842539 0.253503
v -3.409183 4.842539 0.253503
v -1.409183 4.842539 0.253503
v -3.409183 4.842539 -0.023746
v -1.409183 4.842539 -0.023746
v -3.409183 0.842539 -0.023746
v -1.409183 0.842539 -0.023746
vt 0.375000 0.000000
vt 0.500000 -0.000000
vt 0.375000 0.250000
vt 0.500000 0.250000
vt 0.375001 0.281283
vt 0.500001 0.281283
vt 0.375001 0.531284
vt 0.500000 0.531286
vt 0.375000 0.562571
vt 0.500000 0.562570
vt 0.531285 0.000000
vt 0.531285 0.250001
vt 0.343714 -0.000000
vt 0.343714 0.250001
vn 0.000000 0.000000 1.000000
vn 0.000000 0.000000 1.000000
vn 0.000000 0.000000 1.000000
vn 0.000000 0.000000 1.000000
vn 0.000000 1.000000 0.000000
vn 0.000000 1.000000 0.000000
vn 0.000000 1.000000 0.000000
vn 0.000000 1.000000 0.000000
vn 0.000000 0.000000 -1.000000
vn 0.000000 0.000000 -1.000000
vn 0.000000 0.000000 -1.000000
vn 0.000000 0.000000 -1.000000
vn 0.000000 -1.000000 0.000000
vn 0.000000 -1.000000 0.000000
vn 0.000000 -1.000000 0.000000
vn 0.000000 -1.000000 0.000000
vn 1.000000 0.000000 0.000000
vn 1.000000 0.000000 0.000000
vn 1.000000 0.000000 0.000000
vn 1.000000 0.000000 0.000000
vn -1.000000 0.000000 0.000000
vn -1.000000 0.000000 0.000000
vn -1.000000 0.000000 0.000000
vn -1.000000 0.000000 0.000000
s off
g pCube1
usemtl lambert2SG
f 1/1/1 2/2/2 4/4/3 3/3/4
f 3/3/5 4/4/6 6/6/7 5/5/8
f 5/5/9 6/6/10 8/8/11 7/7/12
f 7/7/13 8/8/14 2/10/15 1/9/16
f 2/2/17 8/11/18 6/12/19 4/4/20
f 7/13/21 1/1/22 3/3/23 5/14/24
